<?xml version="1.0" encoding="UTF-8" standalone="no"?>
<!-- Created with Inkscape (http://www.inkscape.org/) -->
<svg xmlns:rdf="http://www.w3.org/1999/02/22-rdf-syntax-ns#" xmlns="http://www.w3.org/2000/svg" height="851.309" width="1200" version="1.1" xmlns:cc="http://creativecommons.org/ns#" xmlns:xlink="http://www.w3.org/1999/xlink" xmlns:dc="http://purl.org/dc/elements/1.1/">
 <defs>
  <linearGradient id="linearGradient4279" gradientUnits="userSpaceOnUse" gradientTransform="matrix(-3.8125e-5,806.26357,-806.26357,-3.8125e-5,615.64994,375.51647)">
   <stop stop-color="#aaa9a4" offset="0"/>
   <stop stop-color="#cccbc7" offset="1"/>
  </linearGradient>
  <filter id="filter5731">
   <feGaussianBlur stdDeviation="3.859019"/>
  </filter>
 </defs>
 <metadata>
  <rdf:RDF>
   <cc:Work rdf:about="">
    <dc:format>image/svg+xml</dc:format>
    <dc:type rdf:resource="http://purl.org/dc/dcmitype/StillImage"/>
    <dc:title/>
   </cc:Work>
  </rdf:RDF>
 </metadata>
 <g transform="translate(-15.650555,-347.39315)">
  <path fill="url(#linearGradient4279)" d="m15.6506,1198.7,1200,0,0-851.309-1200,0,0,851.309z"/>
  <path d="m658.109,569.455c1.16375,0,2.115-1.2,2.115-2.66625v-1.335-1.33125c0-1.46625-0.95125-2.66625-2.115-2.66625h-1.055-1.32c-1.45375,0-2.74375-0.85875-2.86375-1.91s-2.95-0.8125-2.95-0.22625c0,0.58875-1.18875,2.13625-2.64125,2.13625h-1.325-1.31875c-1.45375,0-2.6425,1.2-2.6425,2.66625v1.33125,4.00125,1.0625c0,1.1775,1.18875,2.13625,2.6425,2.13625h1.31875,3.96625,1.05625c1.1625,0,2.11375-0.4825,2.11375-1.06875,0-0.585,1.19-2.13,2.64375-2.13h1.32,1.055z" fill-rule="evenodd" stroke="#000" fill="#c11e28"/>
  <path d="m577.853,582.541,3.1725,0,7.13375,0,3.965,0,11.095,0,3.17125,0,11.1012,0,1.32,0c1.4525,0,2.6425-0.6,2.6425-1.335s-0.595-2.66625-1.3225-2.66625c-0.72625,0-2.64-0.4825-2.64-1.06875s-0.475-2.13-1.055-2.13c-0.5825,0-2.115-0.6-2.115-1.33125,0-0.735-1.19125-2.67-2.645-2.67h-1.32-1.3225c-1.45375,0-2.64375-0.59875-2.64375-1.335,0-0.73125-0.475-2.6625-1.0575-2.6625-0.58125,0-2.11375-0.47875-2.11375-1.065,0-0.59-0.59375-2.1375-1.31875-2.1375s-2.645-0.6-2.645-1.335c0-0.73125-0.47375-2.6625-1.05625-2.6625-0.58,0-2.1125,1.2-2.1125,2.6625v1.335,3.2025,1.33125c0,1.46625-0.595,2.66625-1.32125,2.66625-0.725,0-2.64125,0.6-2.64125,1.33375,0,0.73625-1.19,2.6675-2.64375,2.6675h-1.32125-3.17125-2.37625c-2.6175,0-4.75875-0.6-4.75875-1.33125,0-0.735-2.02375-8.2725-2.75125-8.2725-0.72625,0-1.2125,6.8025-1.2125,8.2725v1.33125,1.06125c0,0.3975-6.8975-0.44-12.42,6.13875-1.45625,1.73625-0.30375,9.50375-1.8125,11.4562-10.0025,12.9375-12.8012,8.56625-16.97,12.9375-3.21,3.35875-4.85,5.9-6.3625,7.9625-1.195,1.62875,6.7725,6.6925,6.66625,6.6925-0.72625,0-2.64125,0.6025-2.64125,1.335,0,0.735,1.1875,2.66875,2.63875,2.66875,0,0,29.5788-43.0525,30.9012-43.0525h3.96375z" fill-rule="evenodd" stroke="#000" fill="#c11e28"/>
  <path d="m522.735,621.33,0-1.33125c0-1.46625-0.47625-2.66625-1.0575-2.66625-0.5825,0-2.11625-0.9625-2.11625-2.13375v-1.065-1.335c0-1.46625-1.1025-2.63375-2.44875-2.59125-1.35,0.0425-2.11-3.27375-2.83625-3.27375s-7.98875,3.0925-7.98875,4.2675v1.065,4.00125,2.39625c0,2.64125,0.92125,4.59125,2.0475,4.33125,1.12875-0.255,1.91375,4.39125,1.91375,8.205v3.465,1.065c0,1.175,6.5375,0,7.99125,0h1.32125,1.05875c1.165,0,2.115-0.9625,2.115-2.13375v-1.065-1.335c0-1.46625,0.595-2.66625,1.32125-2.66625s2.64125-0.47875,2.64125-1.065-0.595-2.13375-1.32125-2.13375c-0.7275,0-2.64125-1.2-2.6425-2.66625l0.001-1.335z" fill-rule="evenodd" stroke="#000" fill="#c11e28"/>
  <path d="m914.263,630.018,1.32,0c1.455,0,2.6475-0.47625,2.6475-1.065,0-0.5825-0.5975-2.13-1.325-2.13s-2.6425-0.60375-2.6425-1.33625c0-0.73-0.475-2.66875-1.0575-2.66875s-2.115,0.60375-2.115,1.335c0,0.735-0.595,2.67-1.32125,2.67-0.725,0-2.64,0.475-2.64,1.06375,0,0.59125,1.19,2.13125,2.6425,2.13125h1.31875,3.1725z" fill-rule="evenodd" stroke="#000" fill="#c11e28"/>
  <path d="m1030.28,653.734c0.7275,0,1.3238-1.08,1.3238-2.4,0-1.32125-0.5963-4.80375-1.3238-4.80375s-2.64-0.48-2.64-1.065-1.1887-2.13375-2.6425-2.13375h-1.3188-3.1762-1.3137c-1.4538,0-3.495,0.0987-4.5388,0.22375-1.04,0.12125-1.8775,2.975-2.6037,2.975-0.7263,0-2.635,1.0825-2.635,2.4,0,1.32,0.5925,4.80375,1.3187,4.80375,0.725,0,2.6388,0.59625,2.6388,1.33,0,0.735,0.9487,2.66625,2.115,2.66625h1.0612,3.9575,3.1762,1.3188c1.4538,0,2.6425-0.595,2.6425-1.33s1.9125-2.66625,2.64-2.66625" fill-rule="evenodd" stroke="#000" fill="#c11e28"/>
  <path d="m1038.73,657.73,0-1.33375c0-1.4625-1.1875-2.6625-2.6388-2.6625h-1.3249-1.0601c-1.1612,0-2.1099,0.59625-2.1099,1.33,0,0.735-0.5963,2.66625-1.3238,2.66625s-2.64,0.60375-2.64,1.335,0.595,2.66625,1.3225,2.66625,2.6413,0.47875,2.6413,1.06625c0,0.585,1.9412,2.53,4.3174,3.02125,2.3738,0.48875,2.8163-5.2875,2.8163-6.75375v-1.335z" fill-rule="evenodd" stroke="#000" fill="#c11e28"/>
  <path d="m623.036,660.915c0-0.73125-0.47625-1.33125-1.05625-1.33125s-2.11375-0.95875-2.11375-2.13375v-1.065-2.66625c0-2.9325,0.47625-5.33125,1.05625-5.33125,0.58125,0,2.11375-0.48375,2.11375-1.07,0-0.585,0.595-2.1325,1.32375-2.1325,0.72625,0,2.64625-1.2,2.64625-2.6675v-1.33375c0-2.3975-2.005-6.65375-2.005-9.05v-1.335c0-1.47-1.19125-2.67-2.64625-2.67h-1.3225-7.1325c-3.7025,0-14.5362-2.535-18.2375-2.535h-3.17-1.32c-1.455,0-2.89375,1.4275-3.19375,3.17375-0.3025,1.7475-6.5825,1.4275-6.5825,2.15875,0,0.7325-0.595,2.66375-1.32125,2.66375-0.7275,0-2.6425,0.96125-2.6425,2.1375v1.06375,1.33625c0,1.46125-0.8525,2.76125-1.895,2.88875-1.04125,0.12125-1.2775,3.575-1.2775,4.31,0,0.73125-0.595,2.66625-1.32,2.66625-0.7275,0-2.6425,1.07875-2.6425,2.39625,0,1.32125-0.475,4.8-1.05875,4.8-0.58125,0-2.11375,0.60375-2.11375,1.335s-0.59375,2.66625-1.32125,2.66625c-0.72625,0-2.6425,0.9625-2.6425,2.13375v1.06875,3.9975,1.33125c0,1.46875,10.0525,10.8675,9.32625,10.8675s-2.6425,0.96125-2.6425,2.13375v1.06375,4.00125,1.065c0,1.175-0.47625,2.135-1.0575,2.135-0.5825,0-2.11625,0.6025-2.11625,1.33375s-0.595,2.66625-1.32125,2.66625c-0.725,0-2.63875,1.2-2.63875,2.66625v1.335,1.065c0,1.17125,1.94125,2.535,4.315,3.02125,2.3725,0.48625,2.81875-4.69,2.81875-5.42125s0.595-2.66625,1.32125-2.66625c0.72375,0,2.64125-1.2,2.64125-2.66625v-1.33375-1.06625c0-1.17125,0.595-2.13375,1.32125-2.13375,0.7275,0,2.6425-1.2,2.6425-2.665v-1.33625-1.06375c0-1.1725,0.475-2.13375,1.0575-2.13375,0.58375,0,0-1.58375,0-3.05v-1.335-1.3325c0-1.465,0.595-2.665,1.32125-2.665,0.7275,0,2.64125-0.95875,2.64125-2.13375v-1.06875-1.335c0-1.4625,0.47625-2.6625,1.055-2.6625,0.58125,0,2.11625-0.95875,2.11625-2.13375v-1.065-1.33125c0-1.47,1.19-2.67,2.6425-2.67h1.3225,1.32125c1.4525,0,2.64,2.15875,2.64,4.8v2.4,3.9975c0,1.06875,2.15,7.285,2.7325,7.285,0.58125,0,2.11125,1.2,2.11125,2.67v1.33125,3.19875,4.00125,3.19875,1.335c0,1.465-0.47375,2.665-1.05625,2.665-0.58,0-2.1125,1.2-2.1125,2.6675v1.335,3.1975,4.00125,1.06625c0,1.17125-0.595,2.13-1.32125,2.13-0.725,0-2.64125,1.19875-2.64125,2.665v1.335,4.00125,1.065c0,1.175-0.595,2.13375-1.32125,2.13375-0.7275,0-2.64375,0.6-2.64375,1.33125,0,0.735,0.595,2.66625,1.32125,2.66625s2.64375,0.48,2.64375,1.06875c0,0.58625,1.18875,2.13,2.64125,2.13h1.32125,1.0575c1.16125,0,2.11125-0.9575,2.11125-2.13v-1.06875-3.9975-1.065c0-1.175,0.595-2.13375,1.3225-2.13375s2.6425-2.4,2.6425-5.33625v-2.665-3.19625-1.335c0-1.465,0.475-2.66625,1.06-2.66625,0.58125,0,2.11-0.96125,2.11-2.1325v-1.065c0.002-1.335,0-2.67,0-4.0025,0.002-1.33375,0-2.665,0-4v-7.2-1.065c0-1.1725,0.595-2.13375,1.3225-2.13375,0.72625,0,2.64375-0.6,2.64375-1.33125,0-0.735,0.59375-2.67,1.3175-2.67,0.72625,0,2.6475,1.2,2.6475,2.67v1.33125,2.40375c0,2.6375,0.0987,5.655,0.22,6.70625,0.12,1.05,1.885-1.615,1.885-0.885,0,0.73125,0.59625,2.66625,1.32,2.66625,0.725,0,2.6425-1.2,2.6425-2.66625v-1.33375-7.2-11.1975-1.065c0-1.17625,0.47625-2.1375,1.05625-2.1375,0.58125,0,2.11375-1.93125,2.11375-2.66625" fill-rule="evenodd" stroke="#000" fill="#c11e28"/>
  <path d="m555.572,725.348c1.33375-0.7025,2.4275-1.88125,2.4275-2.6125,0-0.73625,0.85375-2.76625,1.895-2.89,1.04125-0.12125,1.8725-2.97625,2.59625-2.97625,0.725,0,2.64125-1.19875,2.64125-2.66875v-1.33125-4.00125-1.065c0-1.1725-0.595-2.13-1.32125-2.13-0.725,0-3.49125,0.0987-4.5325,0.22-1.045,0.12125-1.27875,3.575-1.27875,4.31,0,0.73125-0.595,2.66625-1.32125,2.66625-0.7275,0-2.6425,1.20375-2.6425,2.67v1.33,1.06625c0,1.175-0.59625,2.1325-1.3225,2.1325s-2.64375,1.08375-2.64375,2.4c0,1.32125,4.1675,3.59,5.5025,2.88" fill-rule="evenodd" stroke="#000" fill="#c11e28"/>
  <path d="m715.225,721.833c0-0.735-0.95125-1.33375-2.11375-1.33375h-1.0575-1.3175c-1.4525,0-2.64125-0.48-2.64125-1.06625,0-0.58875-0.9525-2.1325-2.115-2.1325h-1.06-3.9625-1.3225c-1.45125,0-2.64125,0.47875-2.64125,1.0675,0,0.58625,1.065,2.25875,2.3625,2.415,1.29875,0.15625,2.79125,3.7125,4.245,3.7125h1.31875,1.06c1.1625,0,2.115,0.48375,2.115,1.06875,0,0.58625,1.1875,2.13,2.63875,2.13h1.32,3.17125,1.32125c1.455,0,2.64625-0.47875,2.64625-1.065,0-0.585-0.595-2.13375-1.3225-2.13375s-2.645-1.93125-2.645-2.6625" fill-rule="evenodd" stroke="#000" fill="#c11e28"/>
  <path d="m590.896,733.634c0-0.73375-0.595-1.335-1.32125-1.335-0.7275,0-2.6425,1.2-2.6425,2.67v1.335,1.065c0,1.17125-0.47625,2.13375-1.05625,2.13375-0.58125,0-2.115,1.2-2.115,2.66625v1.335,1.065c0,1.17125-0.59625,2.13-1.3225,2.13-0.7275,0-2.64,0.60375-2.64,1.335,0,0.735-0.47625,2.66625-1.05875,2.66625s-2.50875,1.96-2.99625,4.355c-0.485,2.3975,4.65,2.84875,5.37625,2.84875,0.7275,0,2.64125-0.96,2.64125-2.1375v-1.065-1.335c0-1.46625,0.475-2.66625,1.05625-2.66625,0.58,0,1.9075-0.93,1.65125-2.06375-0.255-1.135,2.10875-2.03625,3.15-2.1575,1.04-0.12125,1.2775-3.57875,1.2775-4.31,0-0.735,0.595-2.66625,1.32125-2.66625s2.64125-0.47875,2.64125-1.06875c0-0.585-0.59625-2.13-1.32125-2.13-0.72375,0-2.64125-1.93875-2.64125-2.67" fill-rule="evenodd" stroke="#000" fill="#c11e28"/>
  <path d="m1091.92,729.189c0-0.585-0.5937-1.065-1.3212-1.065s-2.6438,0.48-2.6438,1.065c0,0.59,0.5925,2.13375,1.32,2.13375s2.645-1.54375,2.645-2.13375" fill-rule="evenodd" stroke="#000" fill="#c11e28"/>
  <path d="m1095.09,764.354,7.9313,0,3.1687,0,1.3263,0c1.455,0,2.6437-0.47875,2.6437-1.06875,0-0.58625,0.475-2.13,1.0575-2.13,0.5738,0,2.1088-0.6,2.1088-1.335,0-0.73125,1.1075-2.6275,2.4487-2.59125,1.3488,0.0412,1.5213-3.87375,1.5213-4.60875,0-0.73125-0.5975-2.66625-1.3225-2.66625-0.7313,0-2.6475-0.6-2.6475-1.33125s-0.9525-2.67-2.1163-2.67h-1.05-1.3287c-1.4475,0-2.6413-0.355-2.6413-0.795s-1.715-1.66125-3.82-1.74c-2.1037-0.0775-7.6575,0.52-8.1137,1.96-0.4575,1.445-6.2975,1.17875-6.2975,1.91,0,0.73625-0.4763,2.66625-1.055,2.66625-0.58,0-2.1163,1.2-2.1163,2.66625v1.335,3.2025,3.9975,1.065c0,1.17125,2.1413,2.13375,4.7613,2.13375h2.375,3.1662z" fill-rule="evenodd" stroke="#000" fill="#c11e28"/>
  <path d="m811.709,799.143,0-3.685c0-4.05375,2.63-7.3775,5.845-7.3775h2.9125,3.64875c4.01625,0,7.3-1.32,7.3-2.93875,0-1.6125-3.28375-5.89375-7.3-5.89375h-3.64875-8.7575-3.64375c-4.01375,0-7.30375,2.6525-7.30375,5.90125v2.93125,11.0625,2.94125c0,3.23625,1.64125,5.885,3.6525,5.885,2.01,0,7.295-2.64875,7.295-5.885v-2.94125z" fill-rule="evenodd" stroke="#000" fill="#c11e28"/>
  <path d="m798.108,865.476c1.14625-0.75375,2.08375-1.9675,2.08375-2.69875-0.001-0.735,0.47625-2.66625,1.05875-2.66625,0.57875,0,2.115-0.48,2.115-1.065s-0.47625-2.135-1.05875-2.135c-0.58,0-2.115-0.59875-2.115-1.33375-0.001-0.73125-1.18625-2.6625-2.64-2.6625h-1.32-1.06c-1.16,0-2.1125,1.2-2.1125,2.66625v1.33,7.20125,1.06875c0,1.175,3.90125,1.04,5.04875,0.295" fill-rule="evenodd" stroke="#000" fill="#c11e28"/>
  <path d="m1095.09,886.506,1.3288,0c1.4525,0,2.64-0.59625,2.64-1.3275,0-0.73,0.5937-2.66875,1.3212-2.66875s2.6413-1.2,2.6413-2.66625v-1.3325-3.20125-1.32875c0-1.46875-1.0613-2.7975-2.3613-2.95375-1.3025-0.15625-2.7887-3.71375-4.2412-3.71375h-1.3288-1.0512c-1.1638,0-2.115-0.4775-2.115-1.065,0-0.58875-0.5938-2.13625-1.3213-2.13625s-3.4975,0.0987-4.5375,0.22125c-1.04,0.11875-2.4662,2.98-3.9225,2.98h-1.3137-1.3275c-1.4525,0-2.6375,1.2-2.6375,2.66375v1.335,7.19875,1.3325c0,1.46625,0.5925,2.66625,1.3162,2.66625,0.7275,0,2.6488,0.59875,2.6488,1.33375,0,0.73125,1.185,2.6625,2.6375,2.6625h1.3212,3.1713,7.1312z" fill-rule="evenodd" stroke="#000" fill="#c11e28"/>
  <path d="M1076.94,522.469c-0.73,0-3.49,0.093-4.53,0.219-1.04,0.122-2.49,3-3.94,3h-1.31-1.35c-1.45,0-2.62,1.19-2.62,2.656v1.344,7.187,1.344c0,1.466,0.59,2.656,1.31,2.656,0.73,0,2.66,0.583,2.66,1.313,0,0.74,1.17,2.687,2.62,2.687h1.34,3.16,7.13,1.34c1.45,0,2.63-0.614,2.63-1.344,0-0.732,0.61-2.656,1.34-2.656s2.62-1.19,2.62-2.656v-1.344-3.187-1.344c0-1.463-1.04-2.782-2.34-2.938-1.3-0.158-2.8-3.718-4.25-3.718h-1.34-1.03c-1.17,0-2.13-0.504-2.13-1.094,0-0.583-0.59-2.125-1.31-2.125zm-198.502,68.875c-1.576,0-2.876,0.948-2.876,2.094,0,1.138,0.65,4.124,1.438,4.124,0.785,0,4.071-0.031,5.531-0.093,1.459-0.062,0.974,5.062,0.188,5.062-0.787,0-2.844,0.955-2.844,2.094,0,1.144-0.653,4.125-1.437,4.125-0.789,0-2.876,0.926-2.876,2.062,0,1.143,0.65,4.157,1.438,4.157,0.785,0,2.875,0.746,2.875,1.656,0,0.906,0.621,3.313,1.406,3.313,0.79,0,2.875,0.95,2.875,2.093,0,1.135,1.144,4.125,2.563,4.125s5.156-0.922,5.156-2.062c0-1.142,0.934-4.309,2.063-4.5,1.127-0.192,2.024-4.625,2.812-4.625,0.786,0,2.875-1.848,2.875-4.125,0-2.279,1.273-8.313,2.844-8.313h1.437,3.438,1.437c1.574,0,2.844-0.722,2.844-1.625,0-0.912,0.526-3.344,1.156-3.344s2.281-0.921,2.281-2.062c0-1.14-1.023-4.156-2.281-4.156h-1.156-4.281-3.438-8.594-7.718-7.719-1.437zm269.442,8.218c-1.46,0-3.49,0.095-4.54,0.219-1.03,0.121-1.28,3.578-1.28,4.313s-0.58,2.656-1.31,2.656-2.66,1.088-2.66,2.406c0,1.322,0.62,4.813,1.35,4.813s2.62,1.921,2.62,2.656,0.96,1.344,2.13,1.344h1.06,3.94,1.06c1.16,0,2.13-0.609,2.13-1.344s0.58-2.656,1.31-2.656c0.72,0,2.65-1.22,2.65-2.688v-1.312-3.219-1.312c0-1.466-0.62-2.688-1.34-2.688-0.73,0-2.62-0.474-2.62-1.062,0-0.587-0.97-2.126-2.13-2.126h-1.06-1.31zm-61.85,14.594c-1.45,0-2.62,0.609-2.62,1.344s-0.59,2.656-1.32,2.656-2.65,0.505-2.65,1.094c0,0.582-0.49,2.125-1.06,2.125-0.58,0-2.1,0.583-2.1,1.313,0,0.732-0.62,2.687-1.34,2.687-0.73,0-2.63,0.954-2.63,2.125v1.062,8,1.063c0,1.173,0.59,2.125,1.31,2.125,0.73,0,2.66,1.952,2.66,2.688,0,0.734,0.45,1.312,1.03,1.312,0.59,0,2.13,0.479,2.13,1.062,0,0.589,1.2,2.157,2.65,2.157h1.32,3.97,1.06c1.16,0,2.09,0.582,2.09,1.312,0,0.74,0.59,2.688,1.31,2.688,0.74,0,2.66-0.611,2.66-1.344s0.97-2.656,2.12-2.656h1.07,1.31c1.45,0,2.92-0.827,3.25-1.813,0.33-0.98,3.34-1.984,3.34-2.718,0-0.736,0.49-2.688,1.07-2.688s2.12-0.952,2.12-2.125v-1.063-4-4-1.062c0-1.171-0.8-2.411-1.78-2.75-0.98-0.332-1.99-3.375-2.72-3.375-0.72,0-2.62-0.475-2.62-1.063s-0.94-1.946-2.07-1.687c-1.12,0.256-1.9-1.754-1.9-2.344,0-0.585-0.97-2.125-2.13-2.125h-1.06-3.97-3.15-1.35zm52.72,16.563c-1.45,0-2.63,1.193-2.63,2.656v1.344,1.062c0,1.175,1.18,2.125,2.63,2.125h1.34,3.94,1.06c1.17,0,2.13-0.95,2.13-2.125v-1.062-1.344c0-1.463-2.14-2.656-4.75-2.656h-2.38-1.34zm-275.469,7.593c-0.727,0-2.625,0.95-2.625,2.126v1.062,1.344c0,1.467,0.585,2.656,1.313,2.656,0.729,0,2.656-1.189,2.656-2.656v-1.344-1.062c0-1.176-0.616-2.126-1.344-2.126zm131.594,25.219c-1.449,0-2.625,0.604-2.625,1.344,0,0.73-0.588,2.656-1.312,2.656-0.728,0-2.657,1.225-2.657,2.688v1.312,1.063c0,1.17-0.481,2.156-1.062,2.156s-2.125,1.055-2.125,2.375c0,1.321,0.806,5.104,1.781,5.437,0.974,0.333,2.578,3.376,4.031,3.376h1.344,7.125,7.125,1.34c1.46,0,2.63-0.613,2.63-1.344,0-0.738,0.58-2.656,1.31-2.656s2.66-0.954,2.66-2.126v-1.062-4-2.406c0-2.634-0.58-4.813-1.32-4.813-0.72,0-2.65-1.926-2.65-2.656,0-0.74-1.17-1.344-2.63-1.344h-1.34-3.16-7.152-1.313zm164.095,140.375c-1.46,0-2.63,0.954-2.63,2.125v1.063,1.344c0,1.462,1.17,2.656,2.63,2.656h1.34,1.07c1.15,0,2.09-1.194,2.09-2.656v-1.344-1.063c0-1.171-0.94-2.125-2.09-2.125h-1.07-1.34zm-63.69,3.188c-1.3,0-4.75,1.192-4.75,2.656v1.344,1.344c0,1.47,0.59,2.656,1.31,2.656,0.74,0,2.66-0.612,2.66-1.344,0-0.738,0.48-2.656,1.06-2.656s2.13-0.58,2.13-1.313c0-0.737-1.1-2.687-2.41-2.687z" fill-rule="evenodd" transform="translate(15.650555,347.39315)" stroke="#000" fill="#c11e28"/>
  <path d="m547.23,892.244c0,1.46875,9.26375-6.53625,9.845-6.53625,0.58,0,2.11375-0.60125,2.11375-1.33125,0-0.735,0.595-2.66625,1.32-2.66625,0.72625,0,2.64125-0.9625,2.64125-2.13375v-1.065-11.205-1.3275c0-1.47-0.595-2.67-1.32125-2.67s-2.64-0.47875-2.64-1.06625c0-0.585-0.95-2.1325-2.115-2.1325h-1.05625-1.325c-1.45125,0-15.6412-12.505-15.6412-11.33v1.06625,3.9975,1.0725c0,1.17125,0.59375,2.135,1.32,2.135,0.725,0,6.85875,26.025,6.85875,30.1288v3.735,1.32875z" fill-rule="evenodd" stroke="#000" fill="#c11e28"/>
  <path d="m695.481,893.756c0-0.73125-0.9525-1.33-2.11375-1.33h-1.06-3.9625-1.06125c-1.15875,0-2.11,0.59875-2.11,1.33,0,0.7325-0.595,2.66375-1.32,2.66375s-2.64125,0.4825-2.64125,1.06375c0,0.59-1.19,2.1375-2.645,2.1375h-1.3225-1.0525c-1.165,0-2.11875,0.605-2.11875,1.335,0,0.7325-0.595,2.66625-1.3225,2.66625-0.72625,0-2.64,0.6-2.64,1.33125,0,0.735-0.95,2.67-2.115,2.67h-1.0525-1.32375c-1.4525,0-2.64125,0.95875-2.64125,2.13v1.0725,1.3275c0,1.47125-0.59375,2.67-1.32125,2.67-0.72625,0-3.4975,0.1-4.53625,0.21875-1.0425,0.12125-1.28,6.335-1.28,10.4462v3.73,1.3325c0,1.46875,0.47625,2.66875,1.05875,2.66875s2.1125,0.47625,2.1125,1.06625c0,0.58875,2.11875,2.59125,4.71125,3.15125,2.59125,0.5625,4.17125-4.2175,5.33125-4.2175h1.05625,1.32125c1.4525,0,2.64125-0.6025,2.64125-1.33375,0-0.73625,0.47625-2.6675,1.06-2.6675,0.5825,0,2.11125-0.96,2.11125-2.1325v-1.065-4.005-1.3275c0-1.46875-0.475-2.67-1.0575-2.67-0.5775,0-2.11375-0.47875-2.11375-1.065s0.47625-2.13,1.06-2.13c0.5825,0,2.11125-1.19875,2.11125-2.67v-1.3275-1.0725c0-1.17125,0.595-2.13,1.3225-2.13s2.77-1.0725,2.92375-2.385c0.15125-1.30625,3.6825-2.21625,3.6825-2.9475,0-0.73875,2.60875-2.0725,5.7975-1.3525,3.1875,0.72125,4.51-6.45,4.51-7.1825" fill-rule="evenodd" stroke="#000" fill="#c11e28"/>
  <path d="m937.269,940.618c0,2.0525,2.08,3.7275,4.6275,3.7275,2.54625,0,9.25625-1.675,9.25625-3.7275,0-2.04875-2.0825-7.46125-4.63-7.46125-2.54625,0-9.25375,5.4125-9.25375,7.46125" fill-rule="evenodd" stroke="#000" fill="#c11e28"/>
  <path d="m749.632,967.257c-1.16625,0-2.1175,0.59875-2.1175,1.33,0,0.735-0.5925,2.66625-1.31875,2.66625s-2.64,0.48125-2.64,1.06625c0,0.58625-0.475,2.13-1.0575,2.13-0.57875,0-2.115,0.59875-2.115,1.33375s-0.595,2.6675-1.32125,2.6675c-0.7275,0-2.64,0.6-2.64,1.33375,0,0.73125,0.5925,2.66625,1.31875,2.66625,0.7275,0,2.74125,0.86375,2.8625,1.91375,0.12,1.05125,3.545,1.29375,4.27125,1.29375s3.49375-0.10375,4.53625-0.22875c1.04125-0.12375,1.27875-3.5775,1.27875-4.3125s-0.2075-3.59625-0.4625-4.7325c-0.255-1.135,1.7325-1.935,2.31125-1.935,0.5825,0,2.11625-0.95875,2.11625-2.12625v-1.07-1.33c0-1.46625-1.18875-2.66625-2.645-2.66625h-1.32-1.0575z" fill-rule="evenodd" stroke="#000" fill="#c11e28"/>
  <path d="m566.336,996.904,0-1.3375c0-1.4675-0.47625-2.66375-1.05875-2.66375s-2.11625-1.19875-2.11625-2.66625c0,0-5.54875-54.1262-5.54875-55.46v-1.06625c0-1.175-1.19-2.1375-2.64125-2.1375h-1.31875-3.1725-1.32375c-1.4525,0-2.64,1.08375-2.64,2.40375,0,1.3175-20.3088,0.13125-19.5825,0.13125,0.72625,0,2.64375,0.59625,2.64375,1.33125,0,0.25875-0.1725,9.97375,4.0225,20.58,0.85875,2.17375,14.6775,1.77,15.005,4.24375,2.495,18.7838,6.52875,40.6538,6.1175,42.4925-0.71875,3.2175,4.48,5.7425,4.48,7.2125v1.3375,1.3263c0,1.47,1.06875,2.67,2.37625,2.67s4.7575-1.2,4.7575-2.67v-1.3263-2.4c0-2.6437,0.59375-4.8075,1.32-4.8075,0.725,0,2.64-0.5975,2.64-1.33,0-0.7362-0.5925-2.6675-1.31875-2.6675s-2.64125-0.95873-2.64125-2.13123v-1.065z" fill-rule="evenodd" stroke="#000" fill="#c11e28"/>
  <path d="m634.556,1028.42-1.06125,0c-1.16,0-2.11,0.6013-2.11,1.3338,0,0.7312-0.595,2.6625-1.3225,2.6625s-2.6375,0.6037-2.6375,1.3362c0,0.7313-0.59625,2.6763-1.32375,2.6763s-2.64625,0.4762-2.64625,1.0662c0,0.5813,0.595,2.1288,1.3225,2.1288,0.72625,0,2.6475,0.6037,2.6475,1.335,0,0.7312,0.59375,2.6625,1.32,2.6625,0.72375,0,2.74,0.86,2.86125,1.91,0.11875,1.05,3.54375,1.2925,4.2725,1.2925,0.7275,0,2.63875-0.4825,2.63875-1.0725,0-0.5888,0.475-2.13,1.05875-2.13,0.5825,0,2.11375-1.2,2.11375-2.6625v-1.335-7.2075-1.3275c0-1.47-0.9525-2.6688-2.11375-2.6688h-1.05875-3.96125z" fill-rule="evenodd" stroke="#000" fill="#c11e28"/>
  <path d="m1190.22,1055.3-1.3212,0c-1.455,0-2.64,0.5963-2.64,1.3338,0,0.7325-0.9513,2.6637-2.1163,2.6637h-1.0575-3.9625-7.1362-2.3775c-2.6138,0-4.7575-1.2012-4.7575-2.6637v-1.3338-1.0662c0-1.1775,0.24-2.1375,0.5312-2.1375,0.2913,0,1.2438-1.2488,1.47-2.7825,0.2275-1.5263,0.6963-5.2113,0.1138-5.2113s-2.115-0.4837-2.115-1.0725c0-0.59-0.5913-2.13-1.3225-2.13-0.7238,0-2.64-1.08-2.64-2.3987,0-1.3225,0.5962-4.7938,1.32-4.7938,0.725,0,2.6425-0.6037,2.6425-1.3437,0-0.73,0.475-2.6675,1.0575-2.6675s2.5337-1.8613,3.045-4.1338c0.5125-2.2712-3.4713-2.6262-3.6688-2.0937-0.2,0.5312-1.62,2.2287-3.0762,2.2287h-1.32-1.0588c-1.1637,0-2.1162,0.605-2.1162,1.335,0,0.7325-0.59,2.6638-1.32,2.6638-0.725,0-2.6425-0.5975-2.6425-1.33,0-0.7375-1.1913-2.6688-2.64-2.6688h-1.3213-1.0575c-1.1637,0-2.1162-0.4762-2.1162-1.065,0-0.5825-0.5888-2.1287-1.3188-2.1287-0.7262,0-2.6362-0.605-2.6362-1.3375,0-0.7363-0.4763-2.6675-1.065-2.6675-0.5813,0-3.2025-0.5763-4.5363-1.2788-1.3425-0.71-6.4537-1.9175-7.6112-1.9175h-1.0588-11.0975-3.97-3.1662-1.3275c-1.4475,0-2.6425,0.4763-2.6425,1.065,0,0.5825-0.475,2.1313-1.0538,2.1313-0.5762,0-2.115,1.1987-2.115,2.6675v1.3375,1.0625c0,1.1737-0.5912,2.1312-1.3162,2.1312-0.7275,0-2.6463,2.4-2.6463,5.3325v2.6775,3.195,1.335c0,1.4625-0.5912,2.6625-1.3187,2.6625-0.7288,0-2.6488,0.475-2.6488,1.0638,0,0.5837-0.475,2.1387-1.0537,2.1387-0.58,0-2.1138,1.1988-2.1138,2.6613v1.3362,3.9963,3.2037,11.1975,1.3275c0,1.4688,0.4763,2.67,1.0575,2.67,0.5825,0,2.11,0.4825,2.11,1.0713,0,0.5825,0.595,2.1312,1.325,2.1312,0.7275,0,2.6425,1.1988,2.6425,2.6688v1.3287,3.2025,1.3338c0,1.47,0.595,2.6712,1.3225,2.6712s2.64,1.1988,2.64,2.6613v1.335,3.1962,1.3338c0,1.4625,0.4763,2.6637,1.0563,2.6637,0.5825,0,2.1125,0.9575,2.1125,2.1288v1.0725,3.9987,4.0025,7.2013,1.0637c0,1.1725,0.5975,2.1388,1.32,2.1388,0.7325,0,2.65,1.1987,2.65,2.6612,0,1.4638,0.099,6.1925,0.2187,7.2425,0.1225,1.0525,2.9475,2.4863,2.9475,3.955v1.3363,1.0637c0,1.1713,0.5975,2.13,1.3213,2.13,0.7312,0,2.6487,1.2013,2.6487,2.67v1.335,1.3275c0,1.47,0.5888,2.6713,1.32,2.6713,0.7238,0,2.74,0.8587,2.8625,1.9087,0.1213,1.0513,2.945,1.8888,2.945,2.62,0,0.7388,0.5975,2.67,1.3213,2.67,0.7312,0,2.7487,0.8588,2.8612,1.9088,0.1213,1.0525,2.9538,1.89,2.9538,2.6287,0,0.7313,0.5962,2.6625,1.3212,2.6625,0.73,0,2.6488,0.6025,2.6488,1.335,0,0.7375-0.5963,2.6688-1.3288,2.6688-0.7225,0-2.6412,0.9587-2.6412,2.1237v1.0725,3.9975,1.0713c0,1.1725,1.1925,2.13,2.6412,2.13h1.3288,1.3137c1.455,0,2.6475-0.4825,2.6475-1.0638,0-0.59,0.4763-2.1375,1.0588-2.1375,0.5762,0,2.115-1.2,2.115-2.6625v-1.335-3.1962-1.3338c0-1.47,0.59-2.67,1.3212-2.67,0.725,0,2.6338-0.5962,2.6338-1.3287,0-0.7388,0.4762-2.6688,1.0575-2.6688,0.5837,0,2.1162-0.4837,2.1162-1.065,0-0.59,0.5963-2.1375,1.3213-2.1375,0.7325,0,2.64-1.2,2.64-2.6625v-1.3425-1.0575c0-1.1787,0.5975-2.1362,1.3225-2.1362,0.7312,0,2.64-1.2013,2.64-2.6713v-1.3275-1.335c0-1.4687,0.4762-2.67,1.06-2.67,0.5812,0,2.115-0.4762,2.115-1.065,0-0.5887,0.5962-2.1287,1.32-2.1287,0.725,0,2.6425-0.5963,2.6425-1.3363,0-0.73,0.475-2.67,1.0575-2.67s2.1162-0.4762,2.1162-1.0637c0-0.5825,1.185-2.1325,2.64-2.1325,1.4563,0,5.2838-0.6013,5.2838-1.3338,0-0.73,1.0712-2.6612,2.3775-2.6612,1.3062,0,4.7312,1.1062,4.6862,2.47-0.041,1.365,3.8425,1.525,4.5675,1.525,0.7238,0,2.64-1.1988,2.64-2.6675,0-1.4625-0.5975-5.325-1.3212-5.325-0.7313,0-2.64-0.485-2.64-1.0725,0-0.59-0.9513-2.13-2.1163-2.13h-1.0575-1.3225c-1.455,0-2.64-1.2013-2.64-2.67v-1.3363-7.1975-3.9987-3.2013-1.33c0-1.4687,0.4763-2.6675,1.0588-2.6675,0.5812,0,2.1712-1.7337,2.2512-3.855,0.076-2.125,1.1288-7.3425,1.71-7.3425,0.5888,0,2.1163-0.485,2.1163-1.0662,0-0.59,0.5962-2.1363,1.3212-2.1363,0.7238,0,2.64-1.1937,2.64-2.6637v-1.3338-1.0662c0-1.1775-0.9212-1.9238-2.0525-1.67-1.12,0.2637-1.9087-1.7438-1.9087-2.3275,0-0.59,0.5962-2.1363,1.3212-2.1363,0.7238,0,2.64-0.6037,2.64-1.335,0-0.7312,0.5975-2.67,1.3225-2.67,0.73,0,2.64-0.9587,2.64-2.1237v-1.0713-1.3362c0-1.4625-1.185-2.6613-2.635-2.6613h-1.3275z" fill-rule="evenodd" stroke="#000" fill="#c11e28"/>
  <path d="m854.611,640.946c0.155,1.31,1.35125,2.38125,2.66125,2.38125,1.30875,0,4.7525-0.59875,4.7525-1.33125,0-0.73125,1.1025-2.63375,2.4525-2.59,1.35,0.0412,1.51375-4.47375,1.51375-5.94375v-1.32875-1.33375c0-1.47-1.18875-2.67-2.64-2.67h-1.32625-3.96-1.05625c-1.165,0-3.60875,0.77375-5.43125,1.725-1.8225,0.945,2.88,9.78125,3.03375,11.0912" fill-rule="evenodd" stroke="#000" fill="#c11e28"/>
  <path d="m857.035,648.546c0.1525,1.31,1.35125,2.3825,2.66,2.3825,1.3075,0,4.7525-0.6,4.7525-1.335,0-0.73125,1.10375-2.63,2.45375-2.5875,1.3475,0.0425,1.51375-4.4775,1.51375-5.94v-1.335-1.335c0-1.4625-1.19-2.6625-2.6425-2.6625h-1.325-3.96-1.0575c-1.16375,0-3.60625,0.77375-5.42875,1.71875-1.825,0.9475,2.87875,9.78375,3.03375,11.0938" fill-rule="evenodd" stroke="#000" fill="#c11e28"/>
  <path d="m1069.72,751.059c0-0.735-0.475-1.335-1.055-1.335s-2.2425,1.0725-2.3963,2.3825c-0.1537,1.31-3.6812,2.09375-3.6812,2.68,0,0.585,0.5925,2.13375,1.3187,2.13375,0.7263,0,2.6438,0.59875,2.6438,1.33,0,0.74,0.95,2.67125,2.1088,2.67125h1.0612,1.325c1.4525,0,2.6375-1.2,2.6375-2.67125v-1.33-1.07c0-1.17-0.5937-2.12875-1.3213-2.12875-0.7275,0-2.6412-1.93125-2.6412-2.6625" fill-rule="evenodd" stroke="#000" fill="#c11e28"/>
  <path d="m1069.72,757.329c0-0.73125-0.475-1.33125-1.055-1.33125s-2.2425,1.07125-2.3963,2.38125c-0.1537,1.31-3.6812,2.095-3.6812,2.68,0,0.5875,0.5925,2.135,1.3187,2.135,0.7263,0,2.6438,0.6,2.6438,1.335,0,0.73125,0.95,2.6625,2.1088,2.6625h1.0612,1.325c1.4525,0,2.6375-1.2,2.6375-2.66625v-1.33125-1.06875c0-1.1725-0.5937-2.13-1.3213-2.13-0.7275,0-2.6412-1.93125-2.6412-2.66625" fill-rule="evenodd" stroke="#000" fill="#c11e28"/>
  <path d="m887.601,866.049c1.1625,0,2.11-0.95875,2.11-2.12875v-1.06875-1.33125c0-1.4675-0.9475-2.66625-2.11-2.66625h-1.06-1.31875c-1.4525,0-2.64375,1.19875-2.64375,2.66625v1.33125,1.06875c0,1.17,1.19125,2.12875,2.64375,2.12875h1.31875,1.06z" fill-rule="evenodd" stroke="#000" fill="#c11e28"/>
  <path d="m900.284,976.87c0-0.64625-2.14125-1.175-4.76-1.175h-2.37625-1.3225c-1.45375,0-2.64375-0.66-2.64375-1.46875,0-0.80375-0.475-2.92625-1.05375-2.92625-0.58125,0-2.115-1.32-2.115-2.93375v-1.46875-1.17125c0-1.29125,0.475-2.34375,1.05875-2.34375,0.58125,0,2.11,0.52625,2.11,1.1725,0,0.6425,1.19,2.3425,2.64375,2.3425h1.3225,1.05875c1.16,0,2.11-1.0575,2.11-2.3425v-1.1725-1.4625c0-1.615-0.95-2.9325-2.11-2.9325h-1.05875-1.3225c-1.45375,0-2.64375-1.0575-2.64375-2.35v-1.17125-1.47c0-1.61125,0.59625-2.93375,1.3225-2.93375,0.7275,0,2.64375-1.315,2.64375-2.92375v-1.47-2.64125c0-2.905-1.18875-5.27625-2.64125-5.27625h-1.325-11.0988-3.16625-15.0625-3.1725-7.13375-3.9625-54.7012-7.13375-1.32c-1.4525,0-2.64125,0.66125-2.64125,1.47125,0,0.80125-0.95125,2.92375-2.1125,2.92375h-1.05875-1.31875c-1.455,0-2.645,1.05875-2.645,2.35125v1.17125,1.47c0,1.60875,0.59375,2.92375,1.3225,2.92375,0.7275,0,2.64125,1.3225,2.64125,2.93375v1.47,1.17125c0,1.2925-0.1275,3.52875-0.2825,4.9675-0.15375,1.43625-4.2775,1.7775-5.005,1.7775-0.72875,0-2.64375,1.0525-2.64375,2.34375v1.17125,1.46875c0,1.61375,0.595,2.93375,1.3225,2.93375s2.645,0.6525,2.645,1.4625c0,0.8025,0.59375,2.9325,1.3225,2.9325,0.7275,0,2.64125,0.52875,2.64125,1.175,0,0.64375,0.47625,2.3475,1.05875,2.3475,0.58125,0,2.1125,2.375,2.1125,5.275v2.635,1.4725c0,1.61125-0.47625,2.93-1.05625,2.93s-2.115,0.66-2.115,1.47c0,0.80125-0.595,2.9325-1.3225,2.9325s-2.64125,0.53125-2.64125,1.17125c0,0.645,1.06125,2.485,2.36,2.65625,1.3,0.16875,2.08,4.08125,2.6625,4.08125,0.58125,0,2.1125-1.32,2.1125-2.9325v-1.46125-1.17375c0-1.28375,0.59375-2.34125,1.31875-2.34125,0.72625,0,2.6425-0.66,2.6425-1.4675,0-0.80625,0.475-2.935,1.05625-2.935,0.5825,0,2.11125-0.6575,2.11125-1.4625,0-0.80625,0.59375-2.94,1.32125-2.94s2.645-0.525,2.645-1.16875c0-0.6425,1.19-2.345,2.64375-2.345h1.3225,1.05625c1.16375,0,1.79375,2.2025,1.39625,4.8975-0.395,2.69875,5.63,3.01875,6.7925,3.01875h1.06,3.96125,1.32625c1.45,0,2.6375-0.6575,2.6375-1.4625,0-0.80625,0.93875-3.61625,2.08625-4.43875,1.145-0.81875,5.0475-0.9625,5.0475,0.32625v1.1725,1.4725c0,1.61125,0.47625,2.93,1.05875,2.93,0.58125,0,2.1125,0.66,2.1125,1.47,0,0.80125,0.59375,2.9325,1.3225,2.9325,0.72625,0,2.64375,0.53125,2.64375,1.17125,0,0.645,2.14,2.34375,4.75375,2.34375h2.38,1.32125c1.4525,0,2.64125,1.31875,2.64125,2.93125v1.4625,3.5225,1.4687c0,1.6113,0.9525,2.9338,2.115,2.9338h1.05625,1.32375c1.45375,0,2.6425-0.66,2.6425-1.47,0-0.8013,0.59375-2.9325,1.32-2.9325s2.6425,0.66,2.6425,1.4613c0,0.8099,0.95125,2.9412,2.11125,2.9412h1.0575,3.965,1.05625c1.16625,0,2.11625,0.66,2.11625,1.4625s0.59375,2.9325,1.32,2.9325,2.64,0.525,2.64,1.17c0,0.6487,0.59625,2.3438,1.32375,2.3438s2.645,1.1937,2.645,2.64c0,1.4574-0.59625,5.2762-1.3225,5.2762-0.725,0-2.64625,0.6613-2.64625,1.4713,0,0.8025,1.19125,2.9325,2.645,2.9325h1.32375,1.05625c1.1625,0,2.115-0.6613,2.115-1.47,0-0.8025,0.595-2.9338,1.31875-2.9338,0.72625,0,2.64375,0.6613,2.64375,1.4713,0,0.8025,0.475,2.9325,1.05875,2.9325,0.58125,0,2.1075,0.6525,2.1075,1.4625,0,0.8087,1.19125,2.94,2.6475,2.94h1.32,1.31875c1.45375,0,2.64375,1.0575,2.64375,2.3425v1.1787,1.4625c0,1.6063,0.95125,2.925,2.115,2.925h1.05375,2.38c2.61625,0,4.755-0.66,4.755-1.4625,0-0.8012-0.47375-2.925-1.055-2.925-0.57875,0-2.11375-0.5325-2.11375-1.1787,0-0.6463-1.06375-2.4775-2.36125-2.655-1.29625-0.1726-2.4025-4.3963-3.38-4.7588-0.97375-0.3675-1.98875-3.735-2.715-3.735-0.7275,0-2.64125-0.525-2.64125-1.17,0-0.64-0.595-2.3425-1.3225-2.3425s-2.645-1.3225-2.645-2.9338v-1.47-1.17c0-1.2937-0.47625-2.3437-1.05625-2.3437s-2.11-1.3213-2.11-2.9325v-1.4625-4.4025-1.1713c0-1.2925-0.59625-2.3512-1.325-2.3512s-2.6375-1.32-2.6375-2.9325v-1.46125-1.17375c0-1.28375-0.47625-2.34125-1.0575-2.34125-0.5825,0-2.11375-0.66-2.11375-1.4675,0-0.80625-1.19-2.935-2.6425-2.935h-1.32625-1.32125c-1.45125,0-2.63875-1.18625-2.63875-2.63875,0-1.45125,2.37875-5.2775,5.28625-5.2775h2.6425,3.17125,1.315c1.45625,0,2.6475-0.66125,2.6475-1.46375,0-0.81125-0.59625-2.9325-1.325-2.9325s-2.6375-0.39375-2.6375-0.88c0-0.48375-1.12125-1.84-2.495-1.93125-1.37125-0.0888-4.645-1.37125-4.645-2.18,0-0.80375,1.665-2.92625,3.7025-2.92625,2.035,0,7.4,0.6525,7.4,1.4625,0,0.8025,0.95125,2.9325,2.115,2.9325h1.05125,1.3225c1.455,0,2.645,0.52875,2.645,1.175,0,0.64375,0.595,2.3475,1.32,2.3475,0.72625,0,2.6425,0.65875,2.6425,1.46625,0,0.80625,0.95125,2.93,2.115,2.93h1.05375,1.325c1.4525,0,3.58,0.67375,4.725,1.4975,1.1475,0.8225,5.64875,2.01625,6.375,2.01625,0.7275,0,2.64-1.05125,2.64-2.34v-1.17375-1.46375c0-1.61125-0.59625-2.9325-1.32125-2.9325-0.7275,0-2.64125-1.70375-2.64125-2.3475" fill-rule="evenodd" stroke="#000" fill="#c11e28"/>
  <path d="m724.589,463.84c-2.34125,0-4.43625,1.66375-4.65625,3.6875,0,0-12.3288,112.281-78.25,112.281h-65.9375c-1.17125,0-3.02875,1.485-4.125,3.28125l-47.875,78.4375c-1.09625,1.8-2.21375,1.6175-2.5-0.40625l-10.9062-77.625c-0.28625-2.02375-2.4125-3.6875-4.75-3.6875h-189.969c-2.33875,0-4.53,1.6475-4.875,3.65625l-60.4375,351.406c-0.345,2.01,1.285,3.65625,3.625,3.65625h153.812c2.34,0,5.09375-1.50375,6.09375-3.34375l60.1562-110.844c0.9975-1.84,2.0975-1.7,2.4375,0.3125l18.5938,110.219c0.34125,2.01,2.535,3.65625,4.875,3.65625h56c2.33625,0,4.035-1.67,3.75-3.6875l-28.375-202.125c-0.28125-2.02375,0.36125-5.1625,1.4375-6.96875l56.6875-95c1.075-1.80375,3.84875-3.28125,6.1875-3.28125h41.8438c2.34125,0,3.97875,1.63875,3.65625,3.65625l-48.4375,303.75c-0.31875,2.0175,1.315,3.65625,3.65625,3.65625h49.625c2.33625,0,4.53625-1.65,4.90625-3.65625l56.0938-303.75c0.37125-2.00875,2.57-3.65625,4.90625-3.65625h46.0938c2.34,0,4.545-1.65,4.9375-3.65625l7.8125-40.3438c0.39-2.01-1.2225-3.65625-3.5625-3.65625h-46.0625c-2.34375,0-3.94125-1.6475-3.5625-3.65625l20.5938-108.656c0.3825-2.01-1.22-3.65625-3.5625-3.65625h-9.9375zm62.4062,121.969c-2.34,0-4.55875,1.64625-4.90625,3.65625l-60.4062,351.406c-0.34375,2.00875,1.2875,3.65625,3.625,3.65625h153.812c2.34,0,4.13375-1.65625,3.96875-3.6875l-2.96875-36.125c-0.165-2.02875-2.18875-3.6875-4.53125-3.6875h-77.9688c-2.33875,0-4.0125-1.6725-3.71875-3.6875l15.9375-109.531c0.29125-2.02125,2.44125-3.6875,4.78125-3.6875h60.9688c2.3425,0,4.41-1.6575,4.625-3.6875l4.1875-39.1875c0.2175-2.02625-1.50375-3.6875-3.84375-3.6875h-59.9062c-2.33875,0-3.92125-1.65125-3.5-3.65625l20.8125-98.8125c0.42125-2.0025,2.65875-3.625,5-3.625h59.5625c2.33875,0,4.43875-1.65625,4.65625-3.6875l4.15625-38.2812c0.225-2.0275-1.50375-3.6875-3.84375-3.6875h-120.5zm-672.688,0.3125c-2.33-0.17375-4.53125,1.33125-4.875,3.34375l-59.7188,350.438c-0.34125,2.0125,1.29125,3.74125,3.625,3.8125,0,0,58.4938,1.69875,76.0313,0.25,57.25-4.71625,133.365-97.6062,140.594-168.156,14.4712-141.256-45.0862-188.781-86.9062-188.781-56.7062,0-68.75-0.90625-68.75-0.90625zm837.812,0c-2.335,0-4.53,1.64-4.875,3.65625l-60.4062,351.125c-0.345,2.015,1.29,3.65625,3.625,3.65625l53.875-0.0312c2.33875,0,4.5725-1.65375,4.96875-3.65625l25.5-130.594c0.3925-2.005,1.3125-2.06,2.03125-0.125l50.5312,136.062c0.72,1.93875,3.2225,3.53125,5.5625,3.53125h60.9687c2.3362,0,3.675-1.5925,2.9688-3.53125l-56.3125-161.344c-0.685-1.945,0.2525-4.57875,2.0625-5.875,0,0,64.75-46.3888,64.75-96.9688,0-86.4112-73.75-95.4062-73.75-95.4062-2.3125-0.28375-6.1299-0.5-8.4688-0.5h-73.0312zm-506.469,21.6562c0.42172,0.0586,0.76125,0.61437,0.90625,1.625l20.9375,147.156c0.29,2.02375-0.3175,5.17125-1.34375,7l-72.125,128.125c-1.02875,1.825-3.7875,3.34375-6.125,3.34375h-61.6562c-2.33875,0-4.01375-1.6725-3.71875-3.6875l15.9375-108.625c0.29625-2.02125,2.4425-3.76875,4.78125-3.875l57.4375-2.6875c2.335-0.10625,4.43125-1.8475,4.65625-3.875l4.15625-37.6562c0.2225-2.0275-1.5325-3.6875-3.875-3.6875h-52.4375c-2.34,0-3.9775-1.64125-3.625-3.65625l17.1562-98.1562c0.35125-2.0125,2.57-3.65625,4.90625-3.65625h59.5312c2.3375,0,5.07125-1.52875,6.0625-3.375l7.03125-13.0312c0.49687-0.92125,0.98453-1.33984,1.40625-1.28125zm564.406,28.4375c0.2834-0.0195,0.5853-0.0311,0.875,0,0,0,48.5812,1.10375,34.9375,58.3125-13.645,57.2075-57.0625,53.3125-57.0625,53.3125-2.24375-0.5675-3.745-2.6825-3.34375-4.6875l20.5312-103.719c0.3478-1.75547,2.0789-3.0821,4.0625-3.21875zm-846.062,5.53125c0.28382-0.0204,0.58437,0.001,0.875,0.0312,0,0,67.1088,6.94875,41.5938,123.219-28.6488,130.535-88.6562,124.125-88.6562,124.125-2.32375-0.24875-3.88125-2.085-3.5-4.09375l45.625-240.062c0.33141-1.75547,2.07579-3.07588,4.0625-3.21875z" fill-rule="nonzero" fill-opacity="0.99479167" filter="url(#filter5731)" fill="#444"/>
  <path d="M704.719,112.875c-2.341,0-4.437,1.664-4.657,3.687,0,0-12.328,112.282-78.25,112.282h-65.937c-1.171,0-3.029,1.485-4.125,3.281l-47.875,78.437c-1.096,1.8-2.214,1.618-2.5-0.406l-10.906-77.625c-0.287-2.023-2.413-3.687-4.75-3.687h-189.969c-2.339,0-4.53,1.647-4.875,3.656l-60.437,351.406c-0.346,2.01,1.284,3.656,3.624,3.656h153.813c2.34,0,5.094-1.503,6.094-3.343l60.156-110.844c0.997-1.84,2.097-1.7,2.437,0.313l18.594,110.218c0.342,2.01,2.535,3.656,4.875,3.656h56c2.337,0,4.035-1.67,3.75-3.687l-28.375-202.125c-0.281-2.024,0.362-5.162,1.438-6.969l56.687-95c1.075-1.803,3.849-3.281,6.188-3.281h41.843c2.342,0,3.979,1.639,3.657,3.656l-48.438,303.75c-0.319,2.018,1.315,3.656,3.657,3.656h49.624c2.337,0,4.537-1.65,4.907-3.656l56.093-303.75c0.372-2.008,2.57-3.656,4.907-3.656h46.093c2.34,0,4.546-1.65,4.938-3.656l7.812-40.344c0.39-2.01-1.222-3.656-3.562-3.656h-46.062c-2.344,0-3.942-1.648-3.563-3.656l20.594-108.657c0.382-2.01-1.22-3.656-3.563-3.656h-9.937zm62.406,121.969c-2.34,0-4.559,1.646-4.906,3.656l-60.407,351.406c-0.343,2.009,1.288,3.656,3.626,3.656h153.812c2.34,0,4.134-1.656,3.969-3.687l-2.969-36.125c-0.165-2.029-2.189-3.688-4.531-3.688h-77.969c-2.339,0-4.012-1.672-3.719-3.687l15.938-109.531c0.291-2.022,2.441-3.688,4.781-3.688h60.969c2.342,0,4.41-1.657,4.625-3.687l4.187-39.188c0.218-2.026-1.503-3.687-3.843-3.687h-59.907c-2.339,0-3.921-1.652-3.5-3.656l20.813-98.813c0.421-2.003,2.658-3.625,5-3.625h59.562c2.339,0,4.439-1.656,4.656-3.688l4.157-38.281c0.225-2.027-1.504-3.687-3.844-3.687h-120.5zm-672.688,0.312c-2.33-0.174-4.5313,1.332-4.875,3.344l-59.7187,350.438c-0.3413,2.012,1.2912,3.741,3.625,3.812,0,0,58.4937,1.699,76.0312,0.25,57.25-4.716,133.365-97.606,140.594-168.156,14.471-141.256-45.086-188.782-86.906-188.782-56.707,0-68.7505-0.906-68.7505-0.906zm837.812,0c-2.335,0-4.53,1.64-4.875,3.656l-60.406,351.126c-0.345,2.014,1.29,3.656,3.625,3.656l53.875-0.032c2.339,0,4.572-1.653,4.969-3.656l25.5-130.594c0.392-2.004,1.312-2.06,2.031-0.124l50.531,136.062c0.72,1.939,3.22,3.531,5.56,3.531h60.97c2.34,0,3.68-1.592,2.97-3.531l-56.31-161.344c-0.69-1.945,0.25-4.578,2.06-5.875,0,0,64.75-46.389,64.75-96.969,0-86.411-73.75-95.406-73.75-95.406-2.31-0.284-6.13-0.5-8.47-0.5h-73.03zm-506.469,21.656c0.422,0.059,0.761,0.615,0.907,1.626l20.937,147.156c0.29,2.024-0.317,5.171-1.344,7l-72.125,128.125c-1.028,1.825-3.787,3.343-6.125,3.343h-61.656c-2.339,0-4.014-1.672-3.719-3.687l15.938-108.625c0.296-2.021,2.442-3.769,4.781-3.875l57.437-2.687c2.336-0.107,4.432-1.848,4.657-3.876l4.156-37.656c0.223-2.027-1.533-3.687-3.875-3.687h-52.438c-2.34,0-3.977-1.641-3.624-3.657l17.156-98.156c0.351-2.012,2.57-3.656,4.906-3.656h59.531c2.338,0,5.071-1.529,6.063-3.375l7.031-13.031c0.497-0.922,0.985-1.34,1.406-1.282zm564.407,28.438c0.283-0.02,0.585-0.031,0.874,0,0,0,48.578,1.104,34.938,58.312s-57.062,53.313-57.062,53.313c-2.244-0.567-3.746-2.683-3.344-4.687l20.531-103.719c0.348-1.756,2.079-3.082,4.063-3.219zm-846.063,5.531c0.284-0.02,0.584,0.001,0.875,0.031,0,0,67.109,6.949,41.594,123.219-28.649,130.535-88.6565,124.125-88.6565,124.125-2.3237-0.248-3.8813-2.085-3.5-4.094l45.6245-240.062c0.332-1.755,2.076-3.076,4.063-3.219z" fill-rule="nonzero" transform="translate(15.650555,347.39315)" stroke="#000" fill="#c11e28"/>
 </g>
</svg>
